<svg xmlns="http://www.w3.org/2000/svg" xmlns:xlink="http://www.w3.org/1999/xlink" width="1000" zoomAndPan="magnify" viewBox="0 0 750 749.999995" height="1000" preserveAspectRatio="xMidYMid meet" version="1.0"><defs><clipPath id="3b774a8c5c"><path d="M 307.277344 343.625 L 442.824219 343.625 L 442.824219 406.375 L 307.277344 406.375 Z M 307.277344 343.625 " clip-rule="nonzero"/></clipPath><clipPath id="d001dd8acd"><path d="M 338.652344 343.625 L 411.347656 343.625 C 419.671875 343.625 427.652344 346.929688 433.535156 352.816406 C 439.417969 358.699219 442.722656 366.679688 442.722656 375 C 442.722656 383.320312 439.417969 391.300781 433.535156 397.183594 C 427.652344 403.070312 419.671875 406.375 411.347656 406.375 L 338.652344 406.375 C 330.328125 406.375 322.347656 403.070312 316.464844 397.183594 C 310.582031 391.300781 307.277344 383.320312 307.277344 375 C 307.277344 366.679688 310.582031 358.699219 316.464844 352.816406 C 322.347656 346.929688 330.328125 343.625 338.652344 343.625 Z M 338.652344 343.625 " clip-rule="nonzero"/></clipPath><clipPath id="09ec6d57cc"><path d="M 18.824219 51.324219 L 731.324219 51.324219 L 731.324219 181 L 18.824219 181 Z M 18.824219 51.324219 " clip-rule="nonzero"/></clipPath><clipPath id="b5441dcc12"><path d="M 18.824219 310 L 731.324219 310 L 731.324219 440 L 18.824219 440 Z M 18.824219 310 " clip-rule="nonzero"/></clipPath><clipPath id="5ba51447d1"><path d="M 18.824219 569 L 731.324219 569 L 731.324219 698.574219 L 18.824219 698.574219 Z M 18.824219 569 " clip-rule="nonzero"/></clipPath></defs><g clip-path="url(#3b774a8c5c)"><g clip-path="url(#d001dd8acd)"><path fill="#5497a7" d="M 307.277344 343.625 L 442.824219 343.625 L 442.824219 406.375 L 307.277344 406.375 Z M 307.277344 343.625 " fill-opacity="1" fill-rule="nonzero"/></g></g><g clip-path="url(#09ec6d57cc)"><path fill="#000000" d="M 83.707031 180.773438 L 666.441406 180.773438 C 667.5 180.773438 668.558594 180.75 669.617188 180.695312 C 670.675781 180.644531 671.734375 180.566406 672.789062 180.464844 C 673.84375 180.359375 674.894531 180.230469 675.941406 180.074219 C 676.988281 179.917969 678.035156 179.738281 679.074219 179.53125 C 680.113281 179.324219 681.144531 179.09375 682.171875 178.835938 C 683.203125 178.578125 684.222656 178.296875 685.238281 177.988281 C 686.25 177.679688 687.257812 177.347656 688.253906 176.992188 C 689.25 176.632812 690.238281 176.253906 691.21875 175.847656 C 692.199219 175.441406 693.167969 175.015625 694.125 174.5625 C 695.082031 174.109375 696.027344 173.632812 696.964844 173.132812 C 697.898438 172.632812 698.820312 172.109375 699.726562 171.566406 C 700.636719 171.023438 701.53125 170.457031 702.414062 169.867188 C 703.292969 169.277344 704.160156 168.667969 705.011719 168.039062 C 705.863281 167.40625 706.699219 166.753906 707.515625 166.082031 C 708.335938 165.410156 709.136719 164.71875 709.921875 164.007812 C 710.707031 163.296875 711.476562 162.566406 712.226562 161.816406 C 712.972656 161.070312 713.703125 160.300781 714.417969 159.515625 C 715.128906 158.730469 715.820312 157.929688 716.492188 157.109375 C 717.164062 156.292969 717.816406 155.457031 718.445312 154.605469 C 719.078125 153.757812 719.6875 152.890625 720.277344 152.007812 C 720.867188 151.128906 721.433594 150.234375 721.976562 149.324219 C 722.523438 148.417969 723.042969 147.496094 723.542969 146.5625 C 724.042969 145.628906 724.519531 144.679688 724.972656 143.722656 C 725.425781 142.765625 725.855469 141.796875 726.261719 140.820312 C 726.664062 139.839844 727.046875 138.851562 727.402344 137.855469 C 727.761719 136.859375 728.09375 135.851562 728.402344 134.839844 C 728.707031 133.824219 728.992188 132.804688 729.25 131.777344 C 729.507812 130.75 729.738281 129.714844 729.945312 128.675781 C 730.152344 127.636719 730.332031 126.59375 730.488281 125.546875 C 730.644531 124.5 730.773438 123.449219 730.878906 122.394531 C 730.980469 121.339844 731.058594 120.285156 731.109375 119.226562 C 731.164062 118.167969 731.1875 117.109375 731.1875 116.050781 C 731.1875 114.992188 731.164062 113.933594 731.109375 112.875 C 731.058594 111.816406 730.980469 110.761719 730.878906 109.707031 C 730.773438 108.652344 730.644531 107.601562 730.488281 106.554688 C 730.332031 105.503906 730.152344 104.460938 729.945312 103.421875 C 729.738281 102.382812 729.507812 101.351562 729.25 100.324219 C 728.992188 99.296875 728.707031 98.273438 728.402344 97.261719 C 728.09375 96.246094 727.761719 95.242188 727.402344 94.246094 C 727.046875 93.246094 726.664062 92.257812 726.261719 91.28125 C 725.855469 90.300781 725.425781 89.335938 724.972656 88.375 C 724.519531 87.417969 724.042969 86.472656 723.542969 85.539062 C 723.042969 84.605469 722.523438 83.683594 721.976562 82.773438 C 721.433594 81.867188 720.867188 80.972656 720.277344 80.089844 C 719.6875 79.210938 719.078125 78.34375 718.445312 77.492188 C 717.816406 76.644531 717.164062 75.808594 716.492188 74.988281 C 715.820312 74.171875 715.128906 73.367188 714.417969 72.582031 C 713.703125 71.796875 712.972656 71.03125 712.226562 70.28125 C 711.476562 69.535156 710.707031 68.804688 709.921875 68.09375 C 709.136719 67.378906 708.335938 66.6875 707.515625 66.015625 C 706.699219 65.34375 705.863281 64.695312 705.011719 64.0625 C 704.160156 63.429688 703.292969 62.820312 702.414062 62.234375 C 701.53125 61.644531 700.636719 61.078125 699.726562 60.535156 C 698.820312 59.988281 697.898438 59.46875 696.964844 58.96875 C 696.027344 58.46875 695.082031 57.992188 694.125 57.539062 C 693.167969 57.085938 692.199219 56.65625 691.21875 56.253906 C 690.238281 55.847656 689.25 55.464844 688.253906 55.109375 C 687.257812 54.75 686.25 54.417969 685.238281 54.113281 C 684.222656 53.804688 683.203125 53.523438 682.171875 53.265625 C 681.144531 53.007812 680.113281 52.777344 679.074219 52.570312 C 678.035156 52.363281 676.988281 52.179688 675.941406 52.027344 C 674.894531 51.871094 673.84375 51.742188 672.789062 51.636719 C 671.734375 51.53125 670.675781 51.457031 669.617188 51.402344 C 668.558594 51.351562 667.5 51.324219 666.441406 51.324219 L 83.707031 51.324219 C 82.648438 51.324219 81.589844 51.351562 80.53125 51.402344 C 79.472656 51.457031 78.414062 51.53125 77.359375 51.636719 C 76.304688 51.742188 75.253906 51.871094 74.207031 52.027344 C 73.160156 52.179688 72.113281 52.363281 71.074219 52.570312 C 70.035156 52.777344 69.003906 53.007812 67.972656 53.265625 C 66.945312 53.523438 65.925781 53.804688 64.910156 54.113281 C 63.898438 54.417969 62.890625 54.75 61.894531 55.109375 C 60.894531 55.464844 59.90625 55.847656 58.929688 56.253906 C 57.949219 56.65625 56.980469 57.085938 56.023438 57.539062 C 55.066406 57.992188 54.121094 58.46875 53.183594 58.96875 C 52.25 59.46875 51.328125 59.988281 50.417969 60.535156 C 49.511719 61.078125 48.617188 61.644531 47.734375 62.234375 C 46.855469 62.820312 45.988281 63.429688 45.136719 64.0625 C 44.285156 64.695312 43.449219 65.34375 42.632812 66.015625 C 41.8125 66.6875 41.011719 67.378906 40.226562 68.09375 C 39.441406 68.804688 38.671875 69.535156 37.921875 70.28125 C 37.175781 71.03125 36.445312 71.796875 35.730469 72.582031 C 35.019531 73.367188 34.328125 74.171875 33.65625 74.988281 C 32.984375 75.808594 32.332031 76.644531 31.699219 77.492188 C 31.070312 78.34375 30.460938 79.210938 29.871094 80.089844 C 29.28125 80.972656 28.714844 81.867188 28.171875 82.773438 C 27.625 83.683594 27.105469 84.605469 26.605469 85.539062 C 26.105469 86.472656 25.628906 87.417969 25.175781 88.375 C 24.722656 89.335938 24.292969 90.300781 23.886719 91.28125 C 23.480469 92.257812 23.101562 93.246094 22.742188 94.246094 C 22.386719 95.242188 22.054688 96.246094 21.746094 97.261719 C 21.4375 98.273438 21.15625 99.296875 20.898438 100.324219 C 20.640625 101.351562 20.410156 102.382812 20.203125 103.421875 C 19.996094 104.460938 19.816406 105.503906 19.660156 106.554688 C 19.503906 107.601562 19.375 108.652344 19.269531 109.707031 C 19.167969 110.761719 19.089844 111.816406 19.035156 112.875 C 18.984375 113.933594 18.957031 114.992188 18.957031 116.050781 C 18.957031 117.109375 18.984375 118.167969 19.035156 119.226562 C 19.089844 120.285156 19.167969 121.339844 19.269531 122.394531 C 19.375 123.449219 19.503906 124.5 19.660156 125.546875 C 19.816406 126.59375 19.996094 127.636719 20.203125 128.675781 C 20.410156 129.714844 20.640625 130.75 20.898438 131.777344 C 21.15625 132.804688 21.4375 133.824219 21.746094 134.839844 C 22.054688 135.851562 22.386719 136.859375 22.742188 137.855469 C 23.101562 138.851562 23.480469 139.839844 23.886719 140.820312 C 24.292969 141.796875 24.722656 142.765625 25.175781 143.722656 C 25.628906 144.679688 26.105469 145.628906 26.605469 146.5625 C 27.105469 147.496094 27.625 148.417969 28.171875 149.324219 C 28.714844 150.234375 29.28125 151.128906 29.871094 152.007812 C 30.460938 152.890625 31.070312 153.757812 31.699219 154.605469 C 32.332031 155.457031 32.984375 156.292969 33.65625 157.109375 C 34.328125 157.929688 35.019531 158.730469 35.730469 159.515625 C 36.445312 160.300781 37.175781 161.070312 37.921875 161.816406 C 38.671875 162.566406 39.441406 163.296875 40.226562 164.007812 C 41.011719 164.71875 41.8125 165.410156 42.632812 166.082031 C 43.449219 166.753906 44.285156 167.40625 45.136719 168.039062 C 45.988281 168.667969 46.855469 169.277344 47.734375 169.867188 C 48.617188 170.457031 49.511719 171.023438 50.417969 171.566406 C 51.328125 172.109375 52.25 172.632812 53.183594 173.132812 C 54.121094 173.632812 55.066406 174.109375 56.023438 174.5625 C 56.980469 175.015625 57.949219 175.441406 58.929688 175.847656 C 59.90625 176.253906 60.894531 176.632812 61.894531 176.992188 C 62.890625 177.347656 63.898438 177.679688 64.910156 177.988281 C 65.925781 178.296875 66.945312 178.578125 67.972656 178.835938 C 69.003906 179.09375 70.035156 179.324219 71.074219 179.53125 C 72.113281 179.738281 73.160156 179.917969 74.207031 180.074219 C 75.253906 180.230469 76.304688 180.359375 77.359375 180.464844 C 78.414062 180.566406 79.472656 180.644531 80.53125 180.695312 C 81.589844 180.75 82.648438 180.773438 83.707031 180.773438 Z M 83.707031 180.773438 " fill-opacity="1" fill-rule="nonzero"/></g><g clip-path="url(#b5441dcc12)"><path fill="#000000" d="M 666.441406 310.226562 L 83.707031 310.226562 C 82.648438 310.226562 81.589844 310.25 80.53125 310.304688 C 79.472656 310.355469 78.414062 310.433594 77.359375 310.535156 C 76.304688 310.640625 75.253906 310.769531 74.207031 310.925781 C 73.160156 311.082031 72.113281 311.261719 71.074219 311.46875 C 70.035156 311.675781 69.003906 311.90625 67.972656 312.164062 C 66.945312 312.421875 65.925781 312.703125 64.910156 313.011719 C 63.898438 313.320312 62.890625 313.652344 61.894531 314.007812 C 60.894531 314.367188 59.90625 314.746094 58.929688 315.152344 C 57.949219 315.558594 56.980469 315.988281 56.023438 316.4375 C 55.066406 316.890625 54.121094 317.367188 53.183594 317.867188 C 52.25 318.367188 51.328125 318.890625 50.417969 319.433594 C 49.511719 319.976562 48.617188 320.542969 47.734375 321.132812 C 46.855469 321.722656 45.988281 322.332031 45.136719 322.960938 C 44.285156 323.59375 43.449219 324.246094 42.632812 324.917969 C 41.8125 325.589844 41.011719 326.28125 40.226562 326.992188 C 39.441406 327.703125 38.671875 328.433594 37.921875 329.183594 C 37.175781 329.929688 36.445312 330.699219 35.730469 331.484375 C 35.019531 332.269531 34.328125 333.070312 33.65625 333.890625 C 32.984375 334.707031 32.332031 335.542969 31.699219 336.394531 C 31.070312 337.246094 30.460938 338.109375 29.871094 338.992188 C 29.28125 339.871094 28.714844 340.765625 28.171875 341.675781 C 27.625 342.582031 27.105469 343.503906 26.605469 344.4375 C 26.105469 345.375 25.628906 346.320312 25.175781 347.277344 C 24.722656 348.234375 24.292969 349.203125 23.886719 350.179688 C 23.480469 351.160156 23.101562 352.148438 22.742188 353.144531 C 22.386719 354.140625 22.054688 355.148438 21.746094 356.160156 C 21.4375 357.175781 21.15625 358.195312 20.898438 359.222656 C 20.640625 360.25 20.410156 361.285156 20.203125 362.324219 C 19.996094 363.363281 19.816406 364.40625 19.660156 365.453125 C 19.503906 366.5 19.375 367.550781 19.269531 368.605469 C 19.167969 369.660156 19.089844 370.714844 19.035156 371.773438 C 18.984375 372.832031 18.957031 373.890625 18.957031 374.949219 C 18.957031 376.007812 18.984375 377.066406 19.035156 378.125 C 19.089844 379.183594 19.167969 380.238281 19.269531 381.292969 C 19.375 382.347656 19.503906 383.398438 19.660156 384.449219 C 19.816406 385.496094 19.996094 386.539062 20.203125 387.578125 C 20.410156 388.617188 20.640625 389.648438 20.898438 390.675781 C 21.15625 391.703125 21.4375 392.726562 21.746094 393.738281 C 22.054688 394.753906 22.386719 395.757812 22.742188 396.753906 C 23.101562 397.753906 23.480469 398.742188 23.886719 399.71875 C 24.292969 400.699219 24.722656 401.664062 25.175781 402.625 C 25.628906 403.582031 26.105469 404.527344 26.605469 405.460938 C 27.105469 406.394531 27.625 407.316406 28.171875 408.226562 C 28.714844 409.132812 29.28125 410.027344 29.871094 410.910156 C 30.460938 411.789062 31.070312 412.65625 31.699219 413.507812 C 32.332031 414.359375 32.984375 415.191406 33.65625 416.011719 C 34.328125 416.828125 35.019531 417.632812 35.730469 418.417969 C 36.445312 419.203125 37.175781 419.96875 37.921875 420.71875 C 38.671875 421.464844 39.441406 422.195312 40.226562 422.90625 C 41.011719 423.621094 41.8125 424.3125 42.632812 424.984375 C 43.449219 425.65625 44.285156 426.308594 45.136719 426.9375 C 45.988281 427.570312 46.855469 428.179688 47.734375 428.765625 C 48.617188 429.355469 49.511719 429.921875 50.417969 430.464844 C 51.328125 431.011719 52.25 431.535156 53.183594 432.03125 C 54.121094 432.53125 55.066406 433.007812 56.023438 433.460938 C 56.980469 433.914062 57.949219 434.34375 58.929688 434.75 C 59.90625 435.152344 60.894531 435.535156 61.894531 435.890625 C 62.890625 436.25 63.898438 436.582031 64.910156 436.886719 C 65.925781 437.195312 66.945312 437.476562 67.972656 437.734375 C 69.003906 437.992188 70.035156 438.226562 71.074219 438.429688 C 72.113281 438.636719 73.160156 438.820312 74.207031 438.976562 C 75.253906 439.128906 76.304688 439.257812 77.359375 439.363281 C 78.414062 439.46875 79.472656 439.546875 80.53125 439.597656 C 81.589844 439.648438 82.648438 439.675781 83.707031 439.675781 L 666.441406 439.675781 C 667.5 439.675781 668.558594 439.648438 669.617188 439.597656 C 670.675781 439.546875 671.734375 439.46875 672.789062 439.363281 C 673.84375 439.257812 674.894531 439.128906 675.941406 438.976562 C 676.988281 438.820312 678.035156 438.636719 679.074219 438.429688 C 680.113281 438.226562 681.144531 437.992188 682.171875 437.734375 C 683.203125 437.476562 684.222656 437.195312 685.238281 436.886719 C 686.25 436.582031 687.257812 436.25 688.253906 435.890625 C 689.25 435.535156 690.238281 435.152344 691.21875 434.75 C 692.199219 434.34375 693.167969 433.914062 694.125 433.460938 C 695.082031 433.007812 696.027344 432.53125 696.964844 432.03125 C 697.898438 431.535156 698.820312 431.011719 699.726562 430.464844 C 700.636719 429.921875 701.53125 429.355469 702.414062 428.765625 C 703.292969 428.179688 704.160156 427.570312 705.011719 426.9375 C 705.863281 426.308594 706.699219 425.65625 707.515625 424.984375 C 708.335938 424.3125 709.136719 423.621094 709.921875 422.90625 C 710.707031 422.195312 711.476562 421.464844 712.226562 420.71875 C 712.972656 419.96875 713.703125 419.203125 714.417969 418.417969 C 715.128906 417.632812 715.820312 416.828125 716.492188 416.011719 C 717.164062 415.191406 717.816406 414.359375 718.445312 413.507812 C 719.078125 412.65625 719.6875 411.789062 720.277344 410.910156 C 720.867188 410.027344 721.433594 409.132812 721.976562 408.226562 C 722.523438 407.316406 723.042969 406.394531 723.542969 405.460938 C 724.042969 404.527344 724.519531 403.582031 724.972656 402.625 C 725.425781 401.667969 725.855469 400.699219 726.261719 399.71875 C 726.664062 398.742188 727.046875 397.753906 727.402344 396.753906 C 727.761719 395.757812 728.09375 394.753906 728.402344 393.738281 C 728.707031 392.726562 728.992188 391.703125 729.25 390.675781 C 729.507812 389.648438 729.738281 388.617188 729.945312 387.578125 C 730.152344 386.539062 730.332031 385.496094 730.488281 384.449219 C 730.644531 383.398438 730.773438 382.347656 730.878906 381.292969 C 730.980469 380.238281 731.058594 379.183594 731.109375 378.125 C 731.164062 377.066406 731.1875 376.007812 731.1875 374.949219 C 731.1875 373.890625 731.164062 372.832031 731.109375 371.773438 C 731.058594 370.714844 730.980469 369.660156 730.878906 368.605469 C 730.773438 367.550781 730.644531 366.5 730.488281 365.453125 C 730.332031 364.40625 730.152344 363.363281 729.945312 362.324219 C 729.738281 361.285156 729.507812 360.25 729.25 359.222656 C 728.992188 358.195312 728.707031 357.175781 728.402344 356.160156 C 728.09375 355.148438 727.761719 354.140625 727.402344 353.144531 C 727.046875 352.148438 726.664062 351.160156 726.261719 350.179688 C 725.855469 349.203125 725.425781 348.234375 724.972656 347.277344 C 724.519531 346.320312 724.042969 345.375 723.542969 344.4375 C 723.042969 343.503906 722.523438 342.582031 721.976562 341.675781 C 721.433594 340.765625 720.867188 339.871094 720.277344 338.992188 C 719.6875 338.109375 719.078125 337.246094 718.445312 336.394531 C 717.816406 335.542969 717.164062 334.707031 716.492188 333.890625 C 715.820312 333.070312 715.128906 332.269531 714.417969 331.484375 C 713.703125 330.699219 712.972656 329.929688 712.226562 329.183594 C 711.476562 328.433594 710.707031 327.703125 709.921875 326.992188 C 709.136719 326.28125 708.335938 325.589844 707.515625 324.917969 C 706.699219 324.246094 705.863281 323.59375 705.011719 322.960938 C 704.160156 322.332031 703.292969 321.722656 702.414062 321.132812 C 701.53125 320.542969 700.636719 319.976562 699.726562 319.433594 C 698.820312 318.890625 697.898438 318.367188 696.964844 317.867188 C 696.027344 317.367188 695.082031 316.890625 694.125 316.4375 C 693.167969 315.988281 692.199219 315.558594 691.21875 315.152344 C 690.238281 314.746094 689.25 314.367188 688.253906 314.007812 C 687.257812 313.652344 686.25 313.320312 685.238281 313.011719 C 684.222656 312.703125 683.203125 312.421875 682.171875 312.164062 C 681.144531 311.90625 680.113281 311.675781 679.074219 311.46875 C 678.035156 311.261719 676.988281 311.082031 675.941406 310.925781 C 674.894531 310.769531 673.84375 310.640625 672.789062 310.535156 C 671.734375 310.433594 670.675781 310.355469 669.617188 310.304688 C 668.558594 310.25 667.5 310.226562 666.441406 310.226562 Z M 666.441406 310.226562 " fill-opacity="1" fill-rule="nonzero"/></g><g clip-path="url(#5ba51447d1)"><path fill="#000000" d="M 666.441406 569.125 L 83.707031 569.125 C 82.648438 569.125 81.589844 569.152344 80.53125 569.203125 C 79.472656 569.253906 78.414062 569.332031 77.359375 569.4375 C 76.304688 569.539062 75.253906 569.671875 74.207031 569.824219 C 73.160156 569.980469 72.113281 570.164062 71.074219 570.367188 C 70.035156 570.574219 69.003906 570.808594 67.972656 571.066406 C 66.945312 571.320312 65.925781 571.605469 64.910156 571.914062 C 63.898438 572.21875 62.890625 572.550781 61.894531 572.910156 C 60.894531 573.265625 59.90625 573.648438 58.929688 574.050781 C 57.949219 574.457031 56.980469 574.886719 56.023438 575.339844 C 55.066406 575.792969 54.121094 576.269531 53.183594 576.769531 C 52.25 577.265625 51.328125 577.789062 50.417969 578.332031 C 49.511719 578.878906 48.617188 579.445312 47.734375 580.03125 C 46.855469 580.621094 45.988281 581.230469 45.136719 581.863281 C 44.285156 582.492188 43.449219 583.144531 42.632812 583.816406 C 41.8125 584.488281 41.011719 585.179688 40.226562 585.890625 C 39.441406 586.601562 38.671875 587.332031 37.921875 588.082031 C 37.175781 588.832031 36.445312 589.597656 35.730469 590.382812 C 35.019531 591.167969 34.328125 591.96875 33.65625 592.789062 C 32.984375 593.609375 32.332031 594.441406 31.699219 595.292969 C 31.070312 596.144531 30.460938 597.011719 29.871094 597.890625 C 29.28125 598.773438 28.714844 599.667969 28.171875 600.574219 C 27.625 601.484375 27.105469 602.40625 26.605469 603.339844 C 26.105469 604.273438 25.628906 605.21875 25.175781 606.175781 C 24.722656 607.132812 24.292969 608.101562 23.886719 609.082031 C 23.480469 610.058594 23.101562 611.046875 22.742188 612.042969 C 22.386719 613.042969 22.054688 614.046875 21.746094 615.0625 C 21.4375 616.074219 21.15625 617.09375 20.898438 618.125 C 20.640625 619.152344 20.410156 620.183594 20.203125 621.222656 C 19.996094 622.261719 19.816406 623.304688 19.660156 624.351562 C 19.503906 625.402344 19.375 626.453125 19.269531 627.507812 C 19.167969 628.558594 19.089844 629.617188 19.035156 630.675781 C 18.984375 631.730469 18.957031 632.789062 18.957031 633.851562 C 18.957031 634.910156 18.984375 635.96875 19.035156 637.027344 C 19.089844 638.085938 19.167969 639.140625 19.269531 640.195312 C 19.375 641.25 19.503906 642.300781 19.660156 643.347656 C 19.816406 644.394531 19.996094 645.4375 20.203125 646.476562 C 20.410156 647.515625 20.640625 648.550781 20.898438 649.578125 C 21.15625 650.605469 21.4375 651.625 21.746094 652.640625 C 22.054688 653.652344 22.386719 654.65625 22.742188 655.65625 C 23.101562 656.652344 23.480469 657.640625 23.886719 658.621094 C 24.292969 659.597656 24.722656 660.566406 25.175781 661.523438 C 25.628906 662.480469 26.105469 663.425781 26.605469 664.359375 C 27.105469 665.296875 27.625 666.214844 28.171875 667.125 C 28.714844 668.035156 29.28125 668.929688 29.871094 669.808594 C 30.460938 670.691406 31.070312 671.554688 31.699219 672.40625 C 32.332031 673.257812 32.984375 674.09375 33.65625 674.910156 C 34.328125 675.730469 35.019531 676.53125 35.730469 677.316406 C 36.445312 678.101562 37.175781 678.867188 37.921875 679.617188 C 38.671875 680.367188 39.441406 681.097656 40.226562 681.808594 C 41.011719 682.519531 41.8125 683.210938 42.632812 683.882812 C 43.449219 684.554688 44.285156 685.207031 45.136719 685.835938 C 45.988281 686.46875 46.855469 687.078125 47.734375 687.667969 C 48.617188 688.253906 49.511719 688.820312 50.417969 689.367188 C 51.328125 689.910156 52.25 690.433594 53.183594 690.933594 C 54.121094 691.433594 55.066406 691.90625 56.023438 692.359375 C 56.980469 692.8125 57.949219 693.242188 58.929688 693.648438 C 59.90625 694.054688 60.894531 694.433594 61.894531 694.792969 C 62.890625 695.148438 63.898438 695.480469 64.910156 695.789062 C 65.925781 696.09375 66.945312 696.378906 67.972656 696.636719 C 69.003906 696.894531 70.035156 697.125 71.074219 697.332031 C 72.113281 697.539062 73.160156 697.71875 74.207031 697.875 C 75.253906 698.03125 76.304688 698.160156 77.359375 698.261719 C 78.414062 698.367188 79.472656 698.445312 80.53125 698.496094 C 81.589844 698.550781 82.648438 698.574219 83.707031 698.574219 L 666.441406 698.574219 C 667.5 698.574219 668.558594 698.550781 669.617188 698.496094 C 670.675781 698.445312 671.734375 698.367188 672.789062 698.261719 C 673.84375 698.160156 674.894531 698.03125 675.941406 697.875 C 676.988281 697.71875 678.035156 697.539062 679.074219 697.332031 C 680.113281 697.125 681.144531 696.894531 682.171875 696.636719 C 683.203125 696.378906 684.222656 696.09375 685.238281 695.789062 C 686.25 695.480469 687.257812 695.148438 688.253906 694.792969 C 689.25 694.433594 690.238281 694.054688 691.21875 693.648438 C 692.199219 693.242188 693.167969 692.8125 694.125 692.359375 C 695.082031 691.90625 696.027344 691.433594 696.964844 690.933594 C 697.898438 690.433594 698.820312 689.910156 699.726562 689.367188 C 700.636719 688.820312 701.53125 688.253906 702.414062 687.667969 C 703.292969 687.078125 704.160156 686.46875 705.011719 685.835938 C 705.863281 685.207031 706.699219 684.554688 707.515625 683.882812 C 708.335938 683.210938 709.136719 682.519531 709.921875 681.808594 C 710.707031 681.097656 711.476562 680.367188 712.226562 679.617188 C 712.972656 678.867188 713.703125 678.101562 714.417969 677.316406 C 715.128906 676.53125 715.820312 675.730469 716.492188 674.910156 C 717.164062 674.09375 717.816406 673.257812 718.445312 672.40625 C 719.078125 671.554688 719.6875 670.691406 720.277344 669.808594 C 720.867188 668.929688 721.433594 668.035156 721.976562 667.125 C 722.523438 666.214844 723.042969 665.296875 723.542969 664.359375 C 724.042969 663.425781 724.519531 662.480469 724.972656 661.523438 C 725.425781 660.566406 725.855469 659.597656 726.261719 658.621094 C 726.664062 657.640625 727.046875 656.652344 727.402344 655.65625 C 727.761719 654.65625 728.09375 653.652344 728.402344 652.640625 C 728.707031 651.625 728.992188 650.605469 729.25 649.578125 C 729.507812 648.550781 729.738281 647.515625 729.945312 646.476562 C 730.152344 645.4375 730.332031 644.394531 730.488281 643.347656 C 730.644531 642.300781 730.773438 641.25 730.878906 640.195312 C 730.980469 639.140625 731.058594 638.085938 731.109375 637.027344 C 731.164062 635.96875 731.1875 634.910156 731.1875 633.851562 C 731.1875 632.789062 731.164062 631.730469 731.109375 630.675781 C 731.058594 629.617188 730.980469 628.558594 730.878906 627.507812 C 730.773438 626.453125 730.644531 625.402344 730.488281 624.351562 C 730.332031 623.304688 730.152344 622.261719 729.945312 621.222656 C 729.738281 620.183594 729.507812 619.152344 729.25 618.125 C 728.992188 617.09375 728.707031 616.074219 728.402344 615.0625 C 728.09375 614.046875 727.761719 613.042969 727.402344 612.042969 C 727.046875 611.046875 726.664062 610.058594 726.261719 609.082031 C 725.855469 608.101562 725.425781 607.132812 724.972656 606.175781 C 724.519531 605.21875 724.042969 604.273438 723.542969 603.339844 C 723.042969 602.40625 722.523438 601.484375 721.976562 600.574219 C 721.433594 599.667969 720.867188 598.773438 720.277344 597.890625 C 719.6875 597.011719 719.078125 596.144531 718.445312 595.292969 C 717.816406 594.441406 717.164062 593.609375 716.492188 592.789062 C 715.820312 591.96875 715.128906 591.167969 714.417969 590.382812 C 713.703125 589.597656 712.972656 588.832031 712.226562 588.082031 C 711.476562 587.332031 710.707031 586.601562 709.921875 585.890625 C 709.136719 585.179688 708.335938 584.488281 707.515625 583.816406 C 706.699219 583.144531 705.863281 582.492188 705.011719 581.863281 C 704.160156 581.230469 703.292969 580.621094 702.414062 580.03125 C 701.53125 579.445312 700.636719 578.878906 699.726562 578.332031 C 698.820312 577.789062 697.898438 577.265625 696.964844 576.769531 C 696.027344 576.269531 695.082031 575.792969 694.125 575.339844 C 693.167969 574.886719 692.199219 574.457031 691.21875 574.050781 C 690.238281 573.648438 689.25 573.265625 688.253906 572.910156 C 687.257812 572.550781 686.25 572.21875 685.238281 571.914062 C 684.222656 571.605469 683.203125 571.320312 682.171875 571.066406 C 681.144531 570.808594 680.113281 570.574219 679.074219 570.367188 C 678.035156 570.164062 676.988281 569.980469 675.941406 569.824219 C 674.894531 569.671875 673.84375 569.539062 672.789062 569.4375 C 671.734375 569.332031 670.675781 569.253906 669.617188 569.203125 C 668.558594 569.152344 667.5 569.125 666.441406 569.125 Z M 666.441406 569.125 " fill-opacity="1" fill-rule="nonzero"/></g></svg>