<svg xmlns="http://www.w3.org/2000/svg" xmlns:xlink="http://www.w3.org/1999/xlink" width="700" zoomAndPan="magnify" viewBox="0 0 525 225" height="300" preserveAspectRatio="xMidYMid meet" version="1.0"><defs><g/><clipPath id="1826d70645"><path d="M 38.957031 7.054688 L 376 7.054688 L 376 122 L 38.957031 122 Z M 38.957031 7.054688 " clip-rule="nonzero"/></clipPath><clipPath id="e53de128f5"><path d="M 33.488281 73.03125 L 39 73.03125 L 39 206.539062 L 33.488281 206.539062 Z M 33.488281 73.03125 " clip-rule="nonzero"/></clipPath><clipPath id="f41941cce0"><path d="M 486 71.054688 L 491.503906 71.054688 L 491.503906 204.5625 L 486 204.5625 Z M 486 71.054688 " clip-rule="nonzero"/></clipPath><clipPath id="be5ecb7b13"><path d="M 47 208.1875 L 478 208.1875 L 478 218 L 47 218 Z M 47 208.1875 " clip-rule="nonzero"/></clipPath></defs><g clip-path="url(#1826d70645)"><path fill="#328e5a" d="M 133.199219 8.273438 C 126.53125 10.671875 120.976562 17.03125 118.21875 25.386719 C 117.242188 28.367188 117.0625 29.789062 117.019531 34.054688 C 116.976562 39.789062 117.597656 41.746094 120.308594 43.96875 C 121.6875 45.167969 125.421875 46.503906 127.289062 46.503906 C 127.867188 46.503906 128.3125 46.546875 128.3125 46.636719 C 128.3125 46.679688 127.910156 47.835938 127.464844 49.171875 C 126.976562 50.503906 126.488281 52.546875 126.308594 53.703125 L 126 55.839844 L 97.683594 55.925781 C 82.121094 55.972656 63.808594 56.015625 56.960938 56.058594 C 42.15625 56.105469 38.957031 56.636719 38.957031 59.039062 C 38.957031 60.285156 40.246094 60.550781 45.046875 60.238281 C 47.449219 60.0625 58.296875 59.929688 69.1875 59.882812 C 80.078125 59.882812 97.371094 59.707031 107.640625 59.574219 L 126.308594 59.261719 L 127.332031 62.285156 C 130.890625 72.597656 137.601562 75.796875 147.335938 71.753906 C 149.160156 70.996094 152.714844 69.308594 155.207031 68.019531 C 157.738281 66.730469 162.675781 64.417969 166.1875 62.90625 C 169.652344 61.394531 173.078125 59.882812 173.789062 59.574219 C 174.453125 59.214844 174.988281 58.996094 174.988281 59.128906 C 174.988281 59.214844 173.875 61.574219 172.542969 64.375 C 168.851562 72.019531 168.1875 75 168.140625 83.84375 C 168.097656 92.113281 168.71875 95.046875 171.789062 100.914062 C 173.964844 105.050781 175.878906 107.050781 177.523438 106.871094 C 179.300781 106.695312 179.34375 105.273438 177.609375 103.136719 C 175.34375 100.335938 172.765625 94.378906 171.789062 89.667969 C 170.320312 82.554688 171.253906 75.355469 174.855469 65.839844 C 176.542969 61.484375 176.589844 61.394531 177.878906 61.527344 C 178.632812 61.574219 179.433594 61.75 179.746094 61.839844 C 180.542969 62.105469 186.367188 80.289062 187.703125 86.734375 C 189.078125 93.359375 189.390625 101.492188 188.367188 105.628906 C 187.570312 108.960938 184.8125 114.605469 182.367188 117.941406 C 181.257812 119.496094 180.324219 120.917969 180.324219 121.1875 C 180.324219 121.410156 180.902344 121.632812 181.65625 121.632812 C 184.5 121.632812 188.546875 116.386719 190.8125 109.851562 C 191.925781 106.605469 192.015625 105.714844 192.015625 99.625 C 192.058594 93.890625 191.835938 92.023438 190.636719 86.289062 C 188.902344 77.933594 187.300781 73.042969 184.144531 66.328125 C 182.011719 61.75 181.746094 60.90625 182.277344 60.371094 C 182.8125 59.839844 183.96875 60.726562 190.503906 66.507812 C 203.882812 78.464844 208.90625 81.667969 214.640625 81.976562 C 217.351562 82.15625 218.019531 82.023438 220.554688 80.777344 C 222.375 79.886719 224.019531 78.644531 225 77.441406 C 228.066406 73.664062 230.554688 66.640625 230.554688 61.484375 L 230.554688 58.949219 L 238.691406 59.261719 C 251.851562 59.75 283.277344 59.660156 316.574219 58.996094 C 341.601562 58.503906 349.828125 58.460938 358.585938 58.90625 C 364.585938 59.214844 370.585938 59.574219 371.964844 59.707031 C 374.589844 59.972656 376.144531 59.171875 375.65625 57.839844 C 374.722656 55.4375 363.964844 54.726562 332.890625 55.128906 C 248.960938 56.105469 230.289062 56.015625 229.800781 54.550781 C 229.667969 54.148438 229.042969 53.304688 228.464844 52.683594 L 227.398438 51.527344 L 229.265625 51.214844 C 233.933594 50.460938 237.578125 47.792969 238.511719 44.414062 C 239.980469 39.210938 237.800781 31.566406 233.800781 27.742188 C 225.355469 19.609375 209.839844 24.675781 191.878906 41.480469 C 190.058594 43.214844 187.347656 46.015625 185.878906 47.746094 C 183.613281 50.414062 183.125 50.816406 182.367188 50.414062 C 181.921875 50.148438 180.902344 50.058594 180.144531 50.191406 C 178.765625 50.414062 178.722656 50.371094 177.699219 47.480469 C 171.121094 28.320312 156.761719 11.25 144.535156 8.003906 C 141.246094 7.117188 136.089844 7.25 133.199219 8.273438 Z M 144.671875 11.871094 C 151.605469 14.230469 158.941406 21.164062 166.1875 32.277344 C 169.074219 36.679688 176.765625 51.214844 176.765625 52.28125 C 176.765625 52.503906 176.011719 52.238281 175.078125 51.613281 C 171.476562 49.214844 160.183594 45.347656 152.984375 44.011719 C 149.914062 43.433594 146.179688 43.257812 137.203125 43.214844 C 126.355469 43.167969 125.289062 43.078125 123.6875 42.28125 C 121.109375 40.992188 120.085938 38.722656 120.085938 34.277344 C 120.085938 25.34375 125.910156 15.339844 132.980469 12.226562 C 136.980469 10.449219 140.269531 10.359375 144.671875 11.871094 Z M 227.089844 28.007812 C 228.199219 28.320312 229.84375 29.121094 230.6875 29.789062 C 233.980469 32.320312 236.644531 40.011719 235.492188 43.792969 C 234.867188 46.015625 232.957031 47.613281 229.976562 48.503906 C 227.753906 49.171875 224.867188 49.390625 204.285156 50.503906 C 196.460938 50.902344 189.078125 51.75 185.921875 52.546875 C 185.257812 52.683594 184.769531 52.636719 184.8125 52.460938 C 184.8125 52.058594 196.636719 41.65625 200.550781 38.589844 C 208.816406 32.097656 218.199219 27.519531 223.488281 27.433594 C 224.375 27.386719 225.976562 27.652344 227.089844 28.007812 Z M 152.984375 47.167969 C 157.738281 48.148438 167.253906 51.347656 171.652344 53.4375 L 175.210938 55.128906 L 167.207031 55.4375 C 162.808594 55.617188 152.449219 55.75 144.136719 55.792969 L 129.066406 55.839844 L 129.332031 53.261719 C 129.511719 50.902344 130.042969 49.390625 131.378906 47.390625 C 132.355469 45.96875 146.402344 45.835938 152.984375 47.167969 Z M 225.445312 53.617188 C 226.15625 54.328125 226.644531 54.992188 226.511719 55.039062 C 226.421875 55.128906 218.640625 55.082031 209.21875 54.949219 C 192.859375 54.726562 192.324219 54.683594 196.769531 54.195312 C 199.347656 53.882812 204.460938 53.4375 208.105469 53.171875 C 211.796875 52.902344 215.664062 52.636719 216.773438 52.59375 C 223.355469 52.105469 224.109375 52.191406 225.445312 53.617188 Z M 224.734375 58.773438 L 227.445312 59.082031 L 227.445312 60.90625 C 227.398438 65.53125 224.644531 72.820312 221.84375 75.621094 C 220.910156 76.597656 219.441406 77.398438 217.976562 77.84375 C 215.753906 78.464844 215.398438 78.464844 212.90625 77.710938 C 209.527344 76.644531 203.304688 72.597656 195.480469 66.375 C 192.191406 63.75 188.636719 61.039062 187.570312 60.371094 C 186.546875 59.707031 185.65625 59.039062 185.65625 58.816406 C 185.65625 58.417969 220.863281 58.371094 224.734375 58.773438 Z M 165.207031 59.574219 C 165.207031 59.660156 164.273438 60.0625 163.117188 60.507812 C 161.917969 60.949219 157.296875 63.085938 152.761719 65.21875 C 141.070312 70.820312 138.089844 71.265625 134.355469 67.839844 C 132.667969 66.242188 130.667969 62.996094 129.910156 60.371094 L 129.601562 59.394531 L 147.382812 59.394531 C 157.207031 59.394531 165.207031 59.484375 165.207031 59.574219 Z M 165.207031 59.574219 " fill-opacity="1" fill-rule="evenodd"/></g><g clip-path="url(#e53de128f5)"><path fill="#328e5a" d="M 35.015625 248.75 C 35.015625 239.164062 35.066406 229.578125 35 219.988281 C 34.933594 209.746094 34.761719 199.503906 34.625 189.261719 C 34.585938 186.246094 34.617188 183.222656 34.417969 180.214844 C 33.726562 169.695312 33.976562 159.164062 33.910156 148.632812 C 33.878906 143.929688 33.96875 139.230469 33.925781 134.53125 C 33.84375 126.136719 33.570312 117.738281 33.628906 109.347656 C 33.679688 101.285156 34.035156 93.222656 34.273438 85.160156 C 34.339844 82.925781 34.382812 80.683594 34.582031 78.457031 C 34.703125 77.078125 35.070312 75.714844 35.347656 74.351562 C 35.398438 74.097656 35.535156 73.847656 35.691406 73.640625 C 36.109375 73.085938 36.8125 73.117188 37.175781 73.707031 C 37.320312 73.941406 37.40625 74.230469 37.460938 74.507812 C 38.0625 77.570312 38.644531 80.636719 38.738281 83.761719 C 38.804688 85.917969 38.871094 88.074219 38.753906 90.226562 C 38.507812 94.691406 38.265625 99.160156 37.796875 103.605469 C 37.179688 109.453125 37.039062 115.316406 36.828125 121.179688 C 36.621094 126.902344 36.328125 132.625 36.246094 138.347656 C 36.101562 148.996094 35.988281 159.652344 36.042969 170.304688 C 36.113281 184.449219 36.390625 198.589844 36.519531 212.734375 C 36.589844 220.964844 36.492188 229.199219 36.550781 237.433594 C 36.613281 247.535156 36.730469 257.632812 36.890625 267.730469 C 36.960938 272.121094 37.191406 276.511719 37.359375 280.902344 C 37.496094 284.410156 37.773438 287.910156 37.789062 291.417969 C 37.804688 295.023438 37.597656 298.636719 37.453125 302.246094 C 37.433594 302.789062 37.277344 303.339844 37.09375 303.855469 C 37.023438 304.066406 36.714844 304.34375 36.511719 304.34375 C 36.3125 304.34375 35.980469 304.046875 35.9375 303.835938 C 35.726562 302.730469 35.515625 301.621094 35.445312 300.5 C 35.097656 295.035156 34.722656 289.566406 34.496094 284.09375 C 34.359375 280.796875 34.460938 277.484375 34.496094 274.179688 C 34.515625 272.027344 34.636719 269.871094 34.667969 267.71875 C 34.726562 263.28125 34.769531 258.847656 34.808594 254.417969 C 34.824219 252.53125 34.808594 250.644531 34.808594 248.75 L 35.019531 248.75 Z M 35.015625 248.75 " fill-opacity="1" fill-rule="nonzero"/></g><g clip-path="url(#f41941cce0)"><path fill="#328e5a" d="M 489.976562 28.84375 C 489.976562 38.429688 489.925781 48.015625 489.992188 57.601562 C 490.058594 67.84375 490.230469 78.089844 490.367188 88.332031 C 490.40625 91.347656 490.375 94.371094 490.574219 97.378906 C 491.265625 107.898438 491.015625 118.429688 491.082031 128.957031 C 491.113281 133.660156 491.023438 138.363281 491.066406 143.0625 C 491.148438 151.457031 491.421875 159.851562 491.367188 168.242188 C 491.316406 176.308594 490.957031 184.371094 490.71875 192.433594 C 490.652344 194.667969 490.609375 196.910156 490.410156 199.132812 C 490.289062 200.515625 489.921875 201.878906 489.644531 203.242188 C 489.59375 203.492188 489.457031 203.746094 489.300781 203.953125 C 488.882812 204.507812 488.183594 204.476562 487.820312 203.886719 C 487.671875 203.648438 487.585938 203.363281 487.53125 203.085938 C 486.929688 200.023438 486.351562 196.953125 486.253906 193.832031 C 486.1875 191.675781 486.125 189.515625 486.238281 187.367188 C 486.488281 182.902344 486.730469 178.429688 487.199219 173.984375 C 487.8125 168.136719 487.953125 162.273438 488.167969 156.410156 C 488.375 150.691406 488.667969 144.96875 488.746094 139.246094 C 488.894531 128.59375 489.003906 117.9375 488.949219 107.289062 C 488.878906 93.144531 488.601562 79 488.472656 64.859375 C 488.402344 56.628906 488.5 48.394531 488.445312 40.160156 C 488.378906 30.058594 488.261719 19.960938 488.101562 9.859375 C 488.03125 5.46875 487.804688 1.082031 487.632812 -3.308594 C 487.496094 -6.816406 487.21875 -10.316406 487.203125 -13.824219 C 487.1875 -17.433594 487.394531 -21.042969 487.539062 -24.652344 C 487.5625 -25.195312 487.71875 -25.746094 487.898438 -26.261719 C 487.96875 -26.472656 488.277344 -26.75 488.480469 -26.75 C 488.679688 -26.75 489.015625 -26.453125 489.054688 -26.242188 C 489.265625 -25.136719 489.476562 -24.027344 489.550781 -22.90625 C 489.898438 -17.441406 490.269531 -11.972656 490.496094 -6.503906 C 490.632812 -3.203125 490.53125 0.105469 490.496094 3.410156 C 490.476562 5.566406 490.355469 7.722656 490.324219 9.875 C 490.265625 14.308594 490.226562 18.746094 490.183594 23.175781 C 490.167969 25.0625 490.183594 26.949219 490.183594 28.84375 L 489.972656 28.84375 Z M 489.976562 28.84375 " fill-opacity="1" fill-rule="nonzero"/></g><g clip-path="url(#be5ecb7b13)"><path fill="#328e5a" d="M 262.574219 215.65625 C 248.527344 215.828125 234.488281 215.886719 220.441406 216.203125 C 208.699219 216.46875 196.96875 217.148438 185.226562 217.433594 C 172.585938 217.742188 159.945312 217.953125 147.300781 217.933594 C 128.589844 217.902344 109.875 217.703125 91.171875 217.433594 C 82.195312 217.3125 73.207031 216.964844 64.238281 216.5 C 59.742188 216.269531 55.285156 215.542969 50.8125 215.035156 C 49.960938 214.941406 49.109375 214.871094 48.277344 214.679688 C 47.894531 214.59375 47.570312 214.242188 47.214844 214.003906 C 47.578125 213.761719 47.933594 213.332031 48.304688 213.3125 C 50.324219 213.226562 52.339844 213.226562 54.367188 213.238281 C 63.703125 213.3125 73.035156 213.417969 82.367188 213.484375 C 84.585938 213.503906 86.804688 213.4375 89.023438 213.390625 C 96.058594 213.257812 103.097656 213.09375 110.144531 213 C 113.835938 212.949219 117.535156 213.046875 121.226562 213.035156 C 136.476562 213.035156 151.730469 213.035156 166.980469 212.980469 C 171.964844 212.960938 176.933594 212.835938 181.917969 212.664062 C 191.203125 212.339844 200.496094 211.9375 209.78125 211.59375 C 213.203125 211.46875 216.628906 211.363281 220.050781 211.316406 C 244.167969 210.980469 268.28125 210.628906 292.398438 210.339844 C 309.511719 210.140625 326.628906 209.976562 343.746094 209.929688 C 352.34375 209.910156 360.9375 210.3125 369.535156 210.292969 C 378.476562 210.273438 387.453125 210.359375 396.367188 209.738281 C 415.835938 208.398438 435.351562 208.226562 454.875 208.292969 C 459.964844 208.3125 465.050781 208.722656 470.148438 208.867188 C 472.03125 208.914062 473.933594 208.636719 475.828125 208.617188 C 476.382812 208.617188 477.109375 208.820312 477.433594 209.203125 C 477.71875 209.535156 477.777344 210.40625 477.527344 210.769531 C 477.25 211.183594 476.554688 211.410156 476 211.507812 C 474.363281 211.785156 472.71875 212.003906 471.074219 212.167969 C 469.640625 212.300781 468.207031 212.378906 466.769531 212.378906 C 448.488281 212.40625 430.195312 212.253906 411.914062 212.472656 C 398.964844 212.636719 386.019531 213.3125 373.074219 213.714844 C 367.554688 213.886719 362.027344 213.886719 356.5 214.011719 C 346.976562 214.242188 337.445312 214.507812 327.921875 214.757812 C 318.941406 214.988281 309.964844 215.339844 300.972656 215.417969 C 288.179688 215.53125 275.375 215.445312 262.582031 215.445312 C 262.582031 215.511719 262.582031 215.589844 262.582031 215.65625 Z M 262.574219 215.65625 " fill-opacity="1" fill-rule="nonzero"/></g><g fill="#000000" fill-opacity="1"><g transform="translate(55.500054, 165.963925)"><g><path d="M 25.453125 -58.640625 C 33.992188 -58.640625 40.09375 -57.085938 43.75 -53.984375 C 47.414062 -50.878906 49.25 -46.164062 49.25 -39.84375 C 49.25 -36.125 48.332031 -32.804688 46.5 -29.890625 C 44.664062 -26.984375 41.890625 -24.695312 38.171875 -23.03125 C 34.460938 -21.375 29.921875 -20.546875 24.546875 -20.546875 L 21.046875 -20.546875 L 21.046875 -13.234375 C 21.046875 -11.015625 21.296875 -9.347656 21.796875 -8.234375 C 22.296875 -7.128906 23.164062 -6.367188 24.40625 -5.953125 C 25.65625 -5.535156 27.554688 -5.328125 30.109375 -5.328125 C 30.109375 -4.328125 29.941406 -3.351562 29.609375 -2.40625 C 29.273438 -1.46875 28.832031 -0.664062 28.28125 0 L 4.078125 0 C 3.460938 -0.664062 2.988281 -1.46875 2.65625 -2.40625 C 2.320312 -3.351562 2.15625 -4.328125 2.15625 -5.328125 C 4.039062 -5.328125 5.382812 -5.644531 6.1875 -6.28125 C 7 -6.914062 7.40625 -7.984375 7.40625 -9.484375 L 7.40625 -48.578125 C 7.40625 -50.128906 7 -51.222656 6.1875 -51.859375 C 5.382812 -52.503906 4.039062 -52.828125 2.15625 -52.828125 C 2.15625 -54.710938 2.769531 -56.457031 4 -58.0625 C 7.707031 -58.0625 12.753906 -58.203125 19.140625 -58.484375 C 22.347656 -58.585938 24.453125 -58.640625 25.453125 -58.640625 Z M 34.765625 -40.09375 C 34.765625 -43.644531 33.945312 -46.53125 32.3125 -48.75 C 30.675781 -50.96875 27.945312 -52.078125 24.125 -52.078125 C 22.90625 -52.078125 21.878906 -51.96875 21.046875 -51.75 L 21.046875 -27.375 C 21.546875 -27.257812 22.265625 -27.203125 23.203125 -27.203125 C 27.804688 -27.203125 30.882812 -28.421875 32.4375 -30.859375 C 33.988281 -33.296875 34.765625 -36.375 34.765625 -40.09375 Z M 34.765625 -40.09375 "/></g></g></g><g fill="#000000" fill-opacity="1"><g transform="translate(105.575728, 165.963925)"><g><path d="M 30.609375 -45.171875 C 33.109375 -45.171875 34.9375 -44.53125 36.09375 -43.25 C 37.257812 -41.976562 37.84375 -40.234375 37.84375 -38.015625 C 37.84375 -35.628906 37.21875 -33.6875 35.96875 -32.1875 C 34.726562 -30.695312 33.054688 -29.953125 30.953125 -29.953125 C 29.117188 -29.953125 27.632812 -30.476562 26.5 -31.53125 C 25.363281 -32.582031 24.796875 -33.828125 24.796875 -35.265625 C 24.796875 -36.160156 24.878906 -36.851562 25.046875 -37.34375 C 23.046875 -36.851562 21.351562 -35.992188 19.96875 -34.765625 L 19.96875 -9.8125 C 19.96875 -8.425781 20.160156 -7.375 20.546875 -6.65625 C 20.929688 -5.9375 21.691406 -5.394531 22.828125 -5.03125 C 23.972656 -4.664062 25.679688 -4.484375 27.953125 -4.484375 C 27.953125 -3.492188 27.835938 -2.648438 27.609375 -1.953125 C 27.390625 -1.265625 26.976562 -0.613281 26.375 0 L 4.15625 0 C 2.882812 -1.269531 2.25 -2.765625 2.25 -4.484375 C 3.851562 -4.484375 5 -4.832031 5.6875 -5.53125 C 6.382812 -6.226562 6.734375 -7.40625 6.734375 -9.0625 L 6.734375 -33.109375 C 6.734375 -34.609375 6.332031 -35.660156 5.53125 -36.265625 C 4.726562 -36.878906 3.300781 -37.1875 1.25 -37.1875 L 1.25 -40.921875 C 3.082031 -41.984375 5.507812 -42.914062 8.53125 -43.71875 C 11.550781 -44.519531 13.894531 -44.921875 15.5625 -44.921875 C 16.882812 -44.921875 17.820312 -44.445312 18.375 -43.5 C 18.9375 -42.5625 19.21875 -40.675781 19.21875 -37.84375 C 20.21875 -39.726562 21.796875 -41.421875 23.953125 -42.921875 C 26.117188 -44.421875 28.335938 -45.171875 30.609375 -45.171875 Z M 30.609375 -45.171875 "/></g></g></g><g fill="#000000" fill-opacity="1"><g transform="translate(143.007707, 165.963925)"><g><path d="M 26.625 -8.484375 C 30.113281 -8.484375 33.359375 -9.59375 36.359375 -11.8125 C 36.796875 -11.363281 37.179688 -10.695312 37.515625 -9.8125 C 37.847656 -8.925781 38.015625 -8.148438 38.015625 -7.484375 C 38.015625 -6.484375 37.347656 -5.332031 36.015625 -4.03125 C 34.691406 -2.726562 32.847656 -1.601562 30.484375 -0.65625 C 28.128906 0.28125 25.484375 0.75 22.546875 0.75 C 18.441406 0.75 14.847656 -0.132812 11.765625 -1.90625 C 8.691406 -3.6875 6.320312 -6.265625 4.65625 -9.640625 C 2.988281 -13.023438 2.15625 -17.019531 2.15625 -21.625 C 2.15625 -26.34375 3.054688 -30.472656 4.859375 -34.015625 C 6.660156 -37.566406 9.140625 -40.300781 12.296875 -42.21875 C 15.460938 -44.132812 19.046875 -45.09375 23.046875 -45.09375 C 28.085938 -45.09375 32.101562 -43.617188 35.09375 -40.671875 C 38.09375 -37.734375 39.59375 -33.660156 39.59375 -28.453125 C 39.59375 -26.015625 39.203125 -24.085938 38.421875 -22.671875 C 37.648438 -21.253906 36.265625 -20.546875 34.265625 -20.546875 L 16.3125 -20.546875 C 16.632812 -12.503906 20.070312 -8.484375 26.625 -8.484375 Z M 22.546875 -39.34375 C 20.828125 -39.34375 19.382812 -38.382812 18.21875 -36.46875 C 17.050781 -34.5625 16.414062 -31.363281 16.3125 -26.875 L 24.703125 -26.875 C 25.585938 -26.875 26.171875 -27.175781 26.453125 -27.78125 C 26.734375 -28.394531 26.875 -29.335938 26.875 -30.609375 C 26.875 -33.878906 26.484375 -36.148438 25.703125 -37.421875 C 24.929688 -38.703125 23.878906 -39.34375 22.546875 -39.34375 Z M 22.546875 -39.34375 "/></g></g></g><g fill="#000000" fill-opacity="1"><g transform="translate(184.765157, 165.963925)"><g><path d="M 19.21875 0.828125 C 16.5 0.828125 13.796875 0.425781 11.109375 -0.375 C 8.421875 -1.175781 6.210938 -2.328125 4.484375 -3.828125 C 2.765625 -5.328125 1.90625 -7.101562 1.90625 -9.15625 C 1.90625 -11.09375 2.457031 -12.65625 3.5625 -13.84375 C 4.675781 -15.039062 6.09375 -15.640625 7.8125 -15.640625 C 9.375 -15.640625 10.691406 -15.140625 11.765625 -14.140625 C 12.847656 -13.140625 13.390625 -11.835938 13.390625 -10.234375 C 13.390625 -9.515625 13.289062 -8.890625 13.09375 -8.359375 C 12.90625 -7.828125 12.5625 -7.257812 12.0625 -6.65625 C 12.507812 -6.207031 13.34375 -5.859375 14.5625 -5.609375 C 15.78125 -5.359375 17.082031 -5.234375 18.46875 -5.234375 C 20.351562 -5.234375 21.835938 -5.582031 22.921875 -6.28125 C 24.003906 -6.976562 24.546875 -7.878906 24.546875 -8.984375 C 24.546875 -10.484375 23.847656 -11.769531 22.453125 -12.84375 C 21.066406 -13.925781 18.851562 -15.273438 15.8125 -16.890625 C 12.695312 -18.546875 10.335938 -19.914062 8.734375 -21 C 7.128906 -22.082031 5.703125 -23.550781 4.453125 -25.40625 C 3.203125 -27.269531 2.578125 -29.5625 2.578125 -32.28125 C 2.578125 -36.050781 4.128906 -39.097656 7.234375 -41.421875 C 10.335938 -43.753906 14.632812 -44.921875 20.125 -44.921875 C 25.507812 -44.921875 29.519531 -43.960938 32.15625 -42.046875 C 34.789062 -40.140625 36.109375 -37.851562 36.109375 -35.1875 C 36.109375 -33.519531 35.566406 -32.160156 34.484375 -31.109375 C 33.398438 -30.054688 32.082031 -29.53125 30.53125 -29.53125 C 29.082031 -29.53125 27.84375 -29.957031 26.8125 -30.8125 C 25.789062 -31.675781 25.28125 -32.800781 25.28125 -34.1875 C 25.28125 -34.90625 25.390625 -35.640625 25.609375 -36.390625 C 25.835938 -37.140625 26.144531 -37.765625 26.53125 -38.265625 C 25.425781 -39.148438 23.765625 -39.59375 21.546875 -39.59375 C 19.773438 -39.59375 18.390625 -39.175781 17.390625 -38.34375 C 16.390625 -37.519531 15.890625 -36.46875 15.890625 -35.1875 C 15.890625 -33.46875 16.582031 -32.050781 17.96875 -30.9375 C 19.351562 -29.832031 21.570312 -28.503906 24.625 -26.953125 C 27.507812 -25.453125 29.78125 -24.144531 31.4375 -23.03125 C 33.101562 -21.925781 34.546875 -20.457031 35.765625 -18.625 C 36.984375 -16.800781 37.59375 -14.554688 37.59375 -11.890625 C 37.59375 -7.566406 35.832031 -4.363281 32.3125 -2.28125 C 28.789062 -0.207031 24.425781 0.828125 19.21875 0.828125 Z M 19.21875 0.828125 "/></g></g></g><g fill="#000000" fill-opacity="1"><g transform="translate(224.27669, 165.963925)"><g><path d="M 26.625 -8.484375 C 30.113281 -8.484375 33.359375 -9.59375 36.359375 -11.8125 C 36.796875 -11.363281 37.179688 -10.695312 37.515625 -9.8125 C 37.847656 -8.925781 38.015625 -8.148438 38.015625 -7.484375 C 38.015625 -6.484375 37.347656 -5.332031 36.015625 -4.03125 C 34.691406 -2.726562 32.847656 -1.601562 30.484375 -0.65625 C 28.128906 0.28125 25.484375 0.75 22.546875 0.75 C 18.441406 0.75 14.847656 -0.132812 11.765625 -1.90625 C 8.691406 -3.6875 6.320312 -6.265625 4.65625 -9.640625 C 2.988281 -13.023438 2.15625 -17.019531 2.15625 -21.625 C 2.15625 -26.34375 3.054688 -30.472656 4.859375 -34.015625 C 6.660156 -37.566406 9.140625 -40.300781 12.296875 -42.21875 C 15.460938 -44.132812 19.046875 -45.09375 23.046875 -45.09375 C 28.085938 -45.09375 32.101562 -43.617188 35.09375 -40.671875 C 38.09375 -37.734375 39.59375 -33.660156 39.59375 -28.453125 C 39.59375 -26.015625 39.203125 -24.085938 38.421875 -22.671875 C 37.648438 -21.253906 36.265625 -20.546875 34.265625 -20.546875 L 16.3125 -20.546875 C 16.632812 -12.503906 20.070312 -8.484375 26.625 -8.484375 Z M 22.546875 -39.34375 C 20.828125 -39.34375 19.382812 -38.382812 18.21875 -36.46875 C 17.050781 -34.5625 16.414062 -31.363281 16.3125 -26.875 L 24.703125 -26.875 C 25.585938 -26.875 26.171875 -27.175781 26.453125 -27.78125 C 26.734375 -28.394531 26.875 -29.335938 26.875 -30.609375 C 26.875 -33.878906 26.484375 -36.148438 25.703125 -37.421875 C 24.929688 -38.703125 23.878906 -39.34375 22.546875 -39.34375 Z M 22.546875 -39.34375 "/></g></g></g><g fill="#000000" fill-opacity="1"><g transform="translate(266.03414, 165.963925)"><g><path d="M 49.25 -2.25 C 48.414062 -1.414062 46.929688 -0.75 44.796875 -0.25 C 42.660156 0.25 40.625 0.5 38.6875 0.5 C 36.300781 0.5 34.535156 0.0546875 33.390625 -0.828125 C 32.253906 -1.710938 31.6875 -3.128906 31.6875 -5.078125 L 31.6875 -31.03125 C 31.6875 -33.1875 31.210938 -34.738281 30.265625 -35.6875 C 29.328125 -36.632812 28.082031 -37.109375 26.53125 -37.109375 C 24.257812 -37.109375 22.347656 -36.191406 20.796875 -34.359375 L 20.796875 -8.984375 C 20.796875 -7.378906 21.140625 -6.210938 21.828125 -5.484375 C 22.523438 -4.765625 23.707031 -4.40625 25.375 -4.40625 C 25.375 -2.738281 24.734375 -1.269531 23.453125 0 L 4.578125 0 C 3.242188 -1.332031 2.578125 -2.800781 2.578125 -4.40625 C 4.242188 -4.40625 5.4375 -4.765625 6.15625 -5.484375 C 6.875 -6.210938 7.234375 -7.378906 7.234375 -8.984375 L 7.234375 -33.28125 C 7.234375 -34.769531 6.816406 -35.832031 5.984375 -36.46875 C 5.148438 -37.113281 3.707031 -37.4375 1.65625 -37.4375 L 1.65625 -41.171875 C 3.4375 -42.171875 5.945312 -43.085938 9.1875 -43.921875 C 12.4375 -44.753906 14.890625 -45.171875 16.546875 -45.171875 C 17.828125 -45.171875 18.8125 -44.769531 19.5 -43.96875 C 20.195312 -43.164062 20.601562 -41.65625 20.71875 -39.4375 C 22.15625 -41.207031 23.953125 -42.601562 26.109375 -43.625 C 28.273438 -44.65625 30.71875 -45.171875 33.4375 -45.171875 C 37.4375 -45.171875 40.390625 -44.15625 42.296875 -42.125 C 44.210938 -40.101562 45.171875 -36.789062 45.171875 -32.1875 L 45.171875 -9.484375 C 45.171875 -6.765625 46.5 -5.15625 49.15625 -4.65625 Z M 49.25 -2.25 "/></g></g></g><g fill="#000000" fill-opacity="1"><g transform="translate(316.85845, 165.963925)"><g><path d="M 19.21875 -36.6875 L 19.21875 -13.234375 C 19.21875 -11.566406 19.550781 -10.410156 20.21875 -9.765625 C 20.882812 -9.128906 21.828125 -8.8125 23.046875 -8.8125 C 24.097656 -8.8125 25.207031 -9.085938 26.375 -9.640625 C 27.539062 -10.203125 28.453125 -10.898438 29.109375 -11.734375 C 29.671875 -11.285156 30.078125 -10.617188 30.328125 -9.734375 C 30.578125 -8.847656 30.703125 -8.046875 30.703125 -7.328125 C 30.703125 -6.046875 30.253906 -4.796875 29.359375 -3.578125 C 28.472656 -2.359375 27.140625 -1.359375 25.359375 -0.578125 C 23.585938 0.191406 21.457031 0.578125 18.96875 0.578125 C 15.082031 0.578125 11.960938 -0.53125 9.609375 -2.75 C 7.253906 -4.96875 6.078125 -8.65625 6.078125 -13.8125 L 6.078125 -36.6875 L 0.828125 -36.6875 L 0.828125 -41.765625 C 2.273438 -41.984375 3.675781 -42.910156 5.03125 -44.546875 C 6.394531 -46.179688 7.5625 -48.234375 8.53125 -50.703125 C 9.5 -53.171875 10.125 -55.625 10.40625 -58.0625 C 11.394531 -58.226562 12.304688 -58.3125 13.140625 -58.3125 C 15.140625 -58.3125 16.625 -57.742188 17.59375 -56.609375 C 18.5625 -55.472656 19.046875 -54.210938 19.046875 -52.828125 L 19.046875 -44.09375 L 28.703125 -44.09375 C 28.703125 -42.425781 28.617188 -40.992188 28.453125 -39.796875 C 28.285156 -38.609375 27.925781 -37.570312 27.375 -36.6875 Z M 19.21875 -36.6875 "/></g></g></g><g fill="#000000" fill-opacity="1"><g transform="translate(348.218123, 165.963925)"><g><path d="M 25.453125 -58.640625 C 33.992188 -58.640625 40.09375 -57.085938 43.75 -53.984375 C 47.414062 -50.878906 49.25 -46.164062 49.25 -39.84375 C 49.25 -36.125 48.332031 -32.804688 46.5 -29.890625 C 44.664062 -26.984375 41.890625 -24.695312 38.171875 -23.03125 C 34.460938 -21.375 29.921875 -20.546875 24.546875 -20.546875 L 21.046875 -20.546875 L 21.046875 -13.234375 C 21.046875 -11.015625 21.296875 -9.347656 21.796875 -8.234375 C 22.296875 -7.128906 23.164062 -6.367188 24.40625 -5.953125 C 25.65625 -5.535156 27.554688 -5.328125 30.109375 -5.328125 C 30.109375 -4.328125 29.941406 -3.351562 29.609375 -2.40625 C 29.273438 -1.46875 28.832031 -0.664062 28.28125 0 L 4.078125 0 C 3.460938 -0.664062 2.988281 -1.46875 2.65625 -2.40625 C 2.320312 -3.351562 2.15625 -4.328125 2.15625 -5.328125 C 4.039062 -5.328125 5.382812 -5.644531 6.1875 -6.28125 C 7 -6.914062 7.40625 -7.984375 7.40625 -9.484375 L 7.40625 -48.578125 C 7.40625 -50.128906 7 -51.222656 6.1875 -51.859375 C 5.382812 -52.503906 4.039062 -52.828125 2.15625 -52.828125 C 2.15625 -54.710938 2.769531 -56.457031 4 -58.0625 C 7.707031 -58.0625 12.753906 -58.203125 19.140625 -58.484375 C 22.347656 -58.585938 24.453125 -58.640625 25.453125 -58.640625 Z M 34.765625 -40.09375 C 34.765625 -43.644531 33.945312 -46.53125 32.3125 -48.75 C 30.675781 -50.96875 27.945312 -52.078125 24.125 -52.078125 C 22.90625 -52.078125 21.878906 -51.96875 21.046875 -51.75 L 21.046875 -27.375 C 21.546875 -27.257812 22.265625 -27.203125 23.203125 -27.203125 C 27.804688 -27.203125 30.882812 -28.421875 32.4375 -30.859375 C 33.988281 -33.296875 34.765625 -36.375 34.765625 -40.09375 Z M 34.765625 -40.09375 "/></g></g></g><g fill="#000000" fill-opacity="1"><g transform="translate(398.293797, 165.963925)"><g><path d="M 1.828125 -11.734375 C 1.828125 -15.441406 3.046875 -18.378906 5.484375 -20.546875 C 7.929688 -22.710938 11.539062 -23.796875 16.3125 -23.796875 C 17.96875 -23.796875 19.671875 -23.628906 21.421875 -23.296875 C 23.171875 -22.960938 24.597656 -22.519531 25.703125 -21.96875 L 25.703125 -33.03125 C 25.703125 -35.25 25.144531 -36.84375 24.03125 -37.8125 C 22.925781 -38.78125 21.429688 -39.265625 19.546875 -39.265625 C 17.710938 -39.265625 16.21875 -38.820312 15.0625 -37.9375 C 16.113281 -37.601562 16.898438 -37.03125 17.421875 -36.21875 C 17.953125 -35.414062 18.21875 -34.519531 18.21875 -33.53125 C 18.21875 -31.75 17.578125 -30.300781 16.296875 -29.1875 C 15.023438 -28.082031 13.421875 -27.53125 11.484375 -27.53125 C 9.367188 -27.53125 7.671875 -28.140625 6.390625 -29.359375 C 5.117188 -30.585938 4.484375 -32.171875 4.484375 -34.109375 C 4.484375 -36.046875 5.148438 -37.875 6.484375 -39.59375 C 7.816406 -41.3125 9.851562 -42.695312 12.59375 -43.75 C 15.34375 -44.8125 18.742188 -45.34375 22.796875 -45.34375 C 28.285156 -45.34375 32.441406 -44.21875 35.265625 -41.96875 C 38.097656 -39.71875 39.515625 -36.429688 39.515625 -32.109375 L 39.515625 -10.0625 C 39.515625 -7.40625 40.789062 -5.796875 43.34375 -5.234375 L 43.34375 -2.578125 C 42.625 -1.578125 41.429688 -0.800781 39.765625 -0.25 C 38.097656 0.300781 36.40625 0.578125 34.6875 0.578125 C 30.914062 0.578125 28.253906 -0.722656 26.703125 -3.328125 C 25.429688 -2.210938 23.878906 -1.28125 22.046875 -0.53125 C 20.210938 0.207031 18.132812 0.578125 15.8125 0.578125 C 11.644531 0.578125 8.269531 -0.570312 5.6875 -2.875 C 3.113281 -5.175781 1.828125 -8.128906 1.828125 -11.734375 Z M 25.703125 -15.5625 C 25.097656 -15.945312 24.363281 -16.273438 23.5 -16.546875 C 22.644531 -16.828125 21.828125 -16.96875 21.046875 -16.96875 C 19.492188 -16.96875 18.21875 -16.484375 17.21875 -15.515625 C 16.21875 -14.546875 15.71875 -13.144531 15.71875 -11.3125 C 15.71875 -9.8125 16.21875 -8.578125 17.21875 -7.609375 C 18.21875 -6.640625 19.550781 -6.15625 21.21875 -6.15625 C 22.039062 -6.15625 22.851562 -6.28125 23.65625 -6.53125 C 24.46875 -6.78125 25.148438 -7.097656 25.703125 -7.484375 Z M 25.703125 -15.5625 "/></g></g></g><g fill="#000000" fill-opacity="1"><g transform="translate(442.962624, 165.963925)"><g><path d="M 6.984375 -53.234375 C 6.984375 -54.617188 6.582031 -55.660156 5.78125 -56.359375 C 4.976562 -57.054688 3.492188 -57.40625 1.328125 -57.40625 L 1.328125 -60.734375 C 3.328125 -61.835938 5.847656 -62.773438 8.890625 -63.546875 C 11.941406 -64.328125 14.414062 -64.71875 16.3125 -64.71875 C 17.632812 -64.71875 18.570312 -64.441406 19.125 -63.890625 C 19.6875 -63.335938 19.96875 -62.363281 19.96875 -60.96875 L 19.96875 -9.0625 C 19.96875 -7.34375 20.3125 -6.148438 21 -5.484375 C 21.695312 -4.816406 22.878906 -4.484375 24.546875 -4.484375 C 24.546875 -2.929688 23.878906 -1.4375 22.546875 0 L 4.328125 0 C 3.046875 -1.382812 2.40625 -2.878906 2.40625 -4.484375 C 4.019531 -4.484375 5.1875 -4.832031 5.90625 -5.53125 C 6.625 -6.226562 6.984375 -7.40625 6.984375 -9.0625 Z M 6.984375 -53.234375 "/></g></g></g></svg>