<svg xmlns="http://www.w3.org/2000/svg" xmlns:xlink="http://www.w3.org/1999/xlink" width="1000" zoomAndPan="magnify" viewBox="0 0 750 749.999995" height="1000" preserveAspectRatio="xMidYMid meet" version="1.0"><defs><clipPath id="f8fd779e18"><path d="M 75 267.476562 L 210.449219 267.476562 L 210.449219 437.84375 L 75 437.84375 Z M 75 267.476562 " clip-rule="nonzero"/></clipPath><clipPath id="65de624b73"><path d="M 110.25 267.476562 L 175.199219 267.476562 C 194.664062 267.476562 210.449219 283.257812 210.449219 302.726562 L 210.449219 402.5 C 210.449219 421.964844 194.664062 437.75 175.199219 437.75 L 110.25 437.75 C 90.78125 437.75 75 421.964844 75 402.5 L 75 302.726562 C 75 283.257812 90.78125 267.476562 110.25 267.476562 Z M 110.25 267.476562 " clip-rule="nonzero"/></clipPath><clipPath id="6ddae4b06a"><path d="M 26.730469 26.730469 L 723.480469 26.730469 L 723.480469 723.480469 L 26.730469 723.480469 Z M 26.730469 26.730469 " clip-rule="nonzero"/></clipPath></defs><g clip-path="url(#f8fd779e18)"><g clip-path="url(#65de624b73)"><path fill="#5497a7" d="M 75 267.476562 L 210.449219 267.476562 L 210.449219 437.84375 L 75 437.84375 Z M 75 267.476562 " fill-opacity="1" fill-rule="nonzero"/></g></g><g clip-path="url(#6ddae4b06a)"><path fill="#000000" d="M 374.804688 26.523438 C 182.453125 26.523438 26.523438 182.453125 26.523438 374.804688 C 26.523438 567.152344 182.453125 723.082031 374.804688 723.082031 C 567.152344 723.082031 723.082031 567.152344 723.082031 374.804688 C 723.082031 182.453125 567.152344 26.523438 374.804688 26.523438 Z M 374.796875 163.859375 C 432.917969 163.859375 480.039062 210.972656 480.039062 269.097656 C 480.039062 327.21875 432.921875 374.339844 374.796875 374.339844 C 316.671875 374.339844 269.554688 327.222656 269.554688 269.097656 C 269.554688 210.972656 316.671875 163.859375 374.796875 163.859375 Z M 375.796875 562.871094 L 221.234375 562.871094 C 221.234375 459.152344 277.667969 422.234375 314.679688 389.09375 C 332.605469 398.730469 353.0625 404.257812 374.796875 404.421875 C 396.523438 404.257812 416.976562 398.730469 434.902344 389.09375 C 471.921875 422.238281 528.355469 459.160156 528.355469 562.871094 Z M 375.796875 562.871094 " fill-opacity="1" fill-rule="nonzero"/></g></svg>